<svg width="12" height="12" viewBox="0 0 12 12" fill="none" xmlns="http://www.w3.org/2000/svg">
<path d="M5.99996 0.666687C6.36815 0.666687 6.66663 0.965164 6.66663 1.33335V5.33336H10.6666C11.0348 5.33336 11.3333 5.63183 11.3333 6.00002C11.3333 6.36821 11.0348 6.66669 10.6666 6.66669H6.66663V10.6667C6.66663 11.0349 6.36815 11.3334 5.99996 11.3334C5.63177 11.3334 5.33329 11.0349 5.33329 10.6667V6.66669H1.33329C0.965103 6.66669 0.666626 6.36821 0.666626 6.00002C0.666626 5.63183 0.965103 5.33336 1.33329 5.33336H5.33329V1.33335C5.33329 0.965164 5.63177 0.666687 5.99996 0.666687Z" fill="#FF650E"/>
</svg>
