<svg width="12" height="12" viewBox="0 0 12 12" fill="none" xmlns="http://www.w3.org/2000/svg">
    <path fill-rule="evenodd" clip-rule="evenodd" d="M6 12C9.31371 12 12 9.31371 12 6C12 2.68629 9.31371 0 6 0C2.68629 0 0 2.68629 0 6C0 9.31371 2.68629 12 6 12Z" fill="#3B5999"/>
    <path fill-rule="evenodd" clip-rule="evenodd" d="M7.9993 3.56443C7.73103 3.56394 7.4627 3.56506 7.19452 3.56394C7.0245 3.55334 6.84981 3.68227 6.81882 3.85091C6.81484 4.14382 6.81736 4.437 6.81755 4.72987C7.2109 4.73164 7.60438 4.72948 7.99763 4.73094C7.96892 5.15477 7.91627 5.57664 7.85464 5.99686C7.50709 6.00009 7.15942 5.99647 6.81207 5.99861C6.80894 7.24861 6.81362 8.49852 6.80954 9.74852C6.29343 9.75068 5.77692 9.74765 5.2609 9.75C5.25114 8.4999 5.26168 7.24912 5.25544 5.99883C5.00367 5.99608 4.75172 6.00057 4.5 5.99667C4.50095 5.57645 4.50029 5.15623 4.50044 4.7361C4.75211 4.73297 5.00386 4.73678 5.25541 4.73436C5.26313 4.32579 5.24779 3.91681 5.26342 3.50858C5.28862 3.1854 5.41187 2.85969 5.65367 2.63642C5.94605 2.3579 6.36214 2.26384 6.75454 2.25212C7.16959 2.2484 7.5844 2.25066 7.99945 2.25086C8.00115 2.68865 8.00125 3.12664 7.9993 3.56443Z" fill="white"/>
</svg>
