<svg width="12" height="12" viewBox="0 0 12 12" fill="none" xmlns="http://www.w3.org/2000/svg">
    <path d="M6 0C2.688 0 0 2.688 0 6C0 9.312 2.688 12 6 12C9.312 12 12 9.312 12 6C12 2.688 9.312 0 6 0Z" fill="url(#paint0_radial)"/>
    <path fill-rule="evenodd" clip-rule="evenodd" d="M4.65364 2.25H7.34636C8.18216 2.25 8.48524 2.33702 8.79079 2.50044C9.09635 2.66385 9.33615 2.90365 9.49956 3.20921C9.66298 3.51476 9.75 3.81784 9.75 4.65364V7.34636C9.75 8.18216 9.66298 8.48524 9.49956 8.79079C9.33615 9.09635 9.09635 9.33615 8.79079 9.49956C8.48524 9.66298 8.18216 9.75 7.34636 9.75H4.65364C3.81784 9.75 3.51476 9.66298 3.20921 9.49956C2.90365 9.33615 2.66385 9.09635 2.50044 8.79079C2.33702 8.48524 2.25 8.18216 2.25 7.34636V4.65364C2.25 3.81784 2.33702 3.51476 2.50044 3.20921C2.66385 2.90365 2.90365 2.66385 3.20921 2.50044C3.51476 2.33702 3.81784 2.25 4.65364 2.25ZM4.58953 3.05357C3.9395 3.05357 3.74154 3.0918 3.53949 3.19986C3.39054 3.27952 3.27952 3.39054 3.19986 3.53949C3.0918 3.74154 3.05357 3.9395 3.05357 4.58953V7.41047C3.05357 8.0605 3.0918 8.25846 3.19986 8.46051C3.27952 8.60946 3.39054 8.72048 3.53949 8.80014C3.74154 8.9082 3.9395 8.94643 4.58953 8.94643H7.41047C8.0605 8.94643 8.25846 8.9082 8.46051 8.80014C8.60946 8.72048 8.72048 8.60946 8.80014 8.46051C8.9082 8.25846 8.94643 8.0605 8.94643 7.41047V4.58953C8.94643 3.9395 8.9082 3.74154 8.80014 3.53949C8.72048 3.39054 8.60946 3.27952 8.46051 3.19986C8.25846 3.0918 8.0605 3.05357 7.41047 3.05357H4.58953ZM4.125 6C4.125 7.03553 4.96447 7.875 6 7.875C7.03553 7.875 7.875 7.03553 7.875 6C7.875 4.96447 7.03553 4.125 6 4.125C4.96447 4.125 4.125 4.96447 4.125 6ZM6 7.07143C6.59173 7.07143 7.07143 6.59173 7.07143 6C7.07143 5.40827 6.59173 4.92857 6 4.92857C5.40827 4.92857 4.92857 5.40827 4.92857 6C4.92857 6.59173 5.40827 7.07143 6 7.07143ZM8.34375 4.125C8.34375 4.38388 8.13388 4.59375 7.875 4.59375C7.61612 4.59375 7.40625 4.38388 7.40625 4.125C7.40625 3.86612 7.61612 3.65625 7.875 3.65625C8.13388 3.65625 8.34375 3.86612 8.34375 4.125Z" fill="white"/>
    <defs>
        <radialGradient id="paint0_radial" cx="0" cy="0" r="1" gradientUnits="userSpaceOnUse" gradientTransform="translate(2.71873 11.7563) scale(13.693)">
            <stop stop-color="#FED574"/>
            <stop offset="0.0515037" stop-color="#FDCB70"/>
            <stop offset="0.1403" stop-color="#F8AF66"/>
            <stop offset="0.2548" stop-color="#F28256"/>
            <stop offset="0.3488" stop-color="#EC5847"/>
            <stop offset="0.649" stop-color="#C73283"/>
            <stop offset="1" stop-color="#5C6CB3"/>
        </radialGradient>
    </defs>
</svg>
