<svg width="12" height="12" viewBox="0 0 12 12" fill="none" xmlns="http://www.w3.org/2000/svg">
    <path fill-rule="evenodd" clip-rule="evenodd" d="M6 12C9.31371 12 12 9.31371 12 6C12 2.68629 9.31371 0 6 0C2.68629 0 0 2.68629 0 6C0 9.31371 2.68629 12 6 12Z" fill="black"/>
    <path fill-rule="evenodd" clip-rule="evenodd" d="M8.04048 3.16518C7.73422 2.81399 7.61747 2.45771 7.57517 2.20831H7.96095C7.96095 2.20831 7.88481 2.86319 8.44487 3.50619L8.45333 3.51468C8.30105 3.41627 8.1623 3.29751 8.04048 3.16518ZM4.32989 6.44466C4.01856 6.68727 3.85274 6.92309 3.80367 7.34554C3.80198 7.65601 3.87812 8.09543 4.29266 8.38724C4.34173 8.41947 4.38911 8.44832 4.43649 8.47376C4.24698 8.21588 4.20637 7.91559 4.20806 7.68655C4.25713 7.26411 4.42295 7.02828 4.73428 6.78567C5.18097 6.45823 5.73764 6.64316 5.73764 6.64316V5.22652C5.60398 5.20616 5.46861 5.19768 5.33325 5.20107V6.30215C5.33325 6.30215 4.77658 6.11722 4.32989 6.44466ZM2.70555 9.12525L2.7993 9.219C2.78759 9.20881 2.75243 9.1762 2.70555 9.12525ZM9.9 5.55056V4.16277C9.80694 4.17295 9.66312 4.16277 9.49392 4.12375V5.21125C9.49392 5.21125 9.00154 5.19089 8.63606 5.09419C8.12677 4.95846 7.80021 4.74978 7.80021 4.74978C7.80021 4.74978 7.57517 4.60048 7.55656 4.5903V7.45582C7.55656 7.6153 7.51426 8.01399 7.38736 8.34652C7.23355 8.74938 7.00114 9.02524 6.93046 9.10914C6.92494 9.11569 6.92041 9.12107 6.91698 9.12525C6.91698 9.12525 6.60396 9.51207 6.05405 9.77164C5.59479 9.98853 5.18635 10.0001 5.02512 10.0047C5.01231 10.0051 5.00106 10.0054 4.99147 10.0058C4.99147 10.0058 4.23852 10.038 3.56002 9.57654L3.55664 9.57314C3.68185 9.70039 3.8189 9.81575 3.96611 9.91755C4.6446 10.3773 5.39755 10.3468 5.39755 10.3468C5.40714 10.3464 5.41839 10.3461 5.43121 10.3457C5.59243 10.3411 6.00087 10.3295 6.46013 10.1127C7.01004 9.85308 7.32306 9.46626 7.32306 9.46626C7.32649 9.46208 7.33103 9.4567 7.33655 9.45015C7.40722 9.36626 7.63964 9.09039 7.79344 8.68753C7.92034 8.355 7.96264 7.95631 7.96264 7.79683V4.92962C7.97956 4.9398 8.20629 5.0891 8.20629 5.0891C8.20629 5.0891 8.53285 5.29778 9.04215 5.4335C9.40762 5.53021 9.9 5.55056 9.9 5.55056Z" fill="#EE1D52"/>
    <path d="M9.51111 4.11712V5.20182C9.51111 5.20182 9.01715 5.18151 8.65051 5.08506C8.13957 4.94968 7.81197 4.74154 7.81197 4.74154C7.81197 4.74154 7.58451 4.59263 7.56754 4.58247V7.44229C7.56754 7.60136 7.5251 7.99903 7.39779 8.3307C7.23144 8.7639 6.97343 9.04988 6.9259 9.10742C6.9259 9.10742 6.61187 9.49324 6.0602 9.75215C5.56285 9.98567 5.12491 9.9806 4.99421 9.98567C4.99421 9.98567 4.23885 10.0161 3.55817 9.55754L3.55477 9.55416C3.48348 9.4814 3.41558 9.40525 3.35278 9.32571C3.13551 9.04988 3.0031 8.72498 2.96916 8.63191V8.63022C2.91484 8.46946 2.80281 8.08025 2.81808 7.70628C2.84524 7.04463 3.06931 6.6368 3.12872 6.53527C3.28488 6.25775 3.49027 6.009 3.73131 5.80086C3.94519 5.62148 4.18792 5.47765 4.44763 5.37781C4.72941 5.25935 5.03155 5.19674 5.33709 5.19166V6.2899C5.33709 6.2899 4.77863 6.10545 4.33051 6.43205C4.01818 6.67403 3.85183 6.90925 3.8026 7.33061C3.8009 7.64028 3.87729 8.07856 4.29486 8.37131C4.34409 8.40346 4.39162 8.43223 4.43914 8.45761C4.51213 8.55576 4.6004 8.64206 4.70225 8.71314C5.11133 8.9822 5.45252 9.00081 5.89046 8.82651C6.18242 8.70975 6.40139 8.44746 6.50324 8.15471C6.56774 7.97195 6.56604 7.78919 6.56604 7.59967V2.20831H7.58451C7.62695 2.45707 7.74237 2.81243 8.05131 3.16271C8.17522 3.29471 8.31441 3.41316 8.46548 3.51131C8.50962 3.56038 8.73877 3.79729 9.03413 3.94451C9.1852 4.02066 9.34646 4.0782 9.51111 4.11712Z" fill="white"/>
    <path d="M2.55671 8.30646L2.65046 8.40021C2.63796 8.38931 2.60046 8.3566 2.55671 8.30646Z" fill="#69C9D0"/>
    <path d="M4.43517 5.38922C4.17456 5.48905 3.93425 5.63288 3.72102 5.81225C3.47902 6.02038 3.27594 6.27082 3.12025 6.54833C3.06102 6.64985 2.83763 7.05596 2.81055 7.71928C2.79532 8.09493 2.90871 8.48243 2.96117 8.64318V8.64487C2.99502 8.73625 3.12702 9.06283 3.34363 9.33864C3.40625 9.41817 3.47394 9.49432 3.54502 9.56708C3.31486 9.40802 3.11179 9.21681 2.93748 8.99853C2.72255 8.72609 2.59055 8.4029 2.55671 8.30814V8.30475C2.50255 8.144 2.38917 7.75481 2.40609 7.37916C2.43317 6.71754 2.65655 6.30974 2.71579 6.20821C2.87148 5.9307 3.07456 5.68026 3.31656 5.47213C3.52979 5.29277 3.77179 5.14894 4.03071 5.0491C4.19317 4.98141 4.3624 4.93234 4.53502 4.90019C4.79563 4.85451 5.06133 4.85112 5.32364 4.88835V5.20308C5.01733 5.20816 4.7161 5.27077 4.43517 5.38922Z" fill="#69C9D0"/>
    <path fill-rule="evenodd" clip-rule="evenodd" d="M6.54887 2.21817H7.56425C7.52871 2.01173 7.54395 1.87805 7.54564 1.87805H6.14271V7.26917C6.14271 7.27391 6.14271 7.27865 6.14271 7.28339C6.14276 7.46784 6.1428 7.64601 6.0801 7.82419C5.97856 8.11524 5.76025 8.37921 5.46917 8.49596C5.08502 8.64995 4.77533 8.65333 4.4284 8.46889C4.50117 8.56703 4.58917 8.65333 4.69071 8.72271C5.09686 8.99176 5.43871 9.01206 5.87533 8.83608C6.16471 8.71933 6.38302 8.45535 6.48625 8.16431C6.54887 7.98156 6.54887 7.79881 6.54887 7.60929V2.21817ZM9.48333 4.12689V3.82738C9.31072 3.846 8.96041 3.79185 8.60164 3.61418C8.54579 3.58541 8.49333 3.55495 8.44087 3.52111C8.48656 3.57018 8.71502 3.80877 9.00779 3.95429C9.15841 4.03044 9.31918 4.08797 9.48333 4.12689Z" fill="#69C9D0"/>
</svg>
