<svg width="12" height="12" viewBox="0 0 12 12" fill="none" xmlns="http://www.w3.org/2000/svg">
    <path fill-rule="evenodd" clip-rule="evenodd" d="M6 12C9.31371 12 12 9.31371 12 6C12 2.68629 9.31371 0 6 0C2.68629 0 0 2.68629 0 6C0 9.31371 2.68629 12 6 12Z" fill="#54ABED"/>
    <path fill-rule="evenodd" clip-rule="evenodd" d="M9.20151 3.79122C9.51974 3.5798 9.86696 3.15477 9.98208 2.75581C9.68417 2.95163 9.2479 3.14473 8.89672 3.22134C8.61553 2.88929 8.21849 2.72113 7.77507 2.72113C6.92371 2.72113 6.23341 3.48603 6.23341 4.42951C6.23341 4.56341 6.24704 4.69381 6.27334 4.81885C4.99208 4.74761 3.85611 4.06744 3.09578 3.03382C2.96307 3.28613 2.88703 3.57963 2.88703 3.89273C2.88703 4.48547 3.1592 5.00838 3.57286 5.31474C3.32015 5.30587 3.08244 5.22901 2.87459 5.10106C2.87444 5.10818 2.87444 5.1153 2.87444 5.12254C2.87444 5.55428 3.01902 5.94869 3.25743 6.24952C3.39829 6.42725 3.5719 6.57233 3.7678 6.67314C3.87602 6.72883 4.11111 6.79774 4.11111 6.79774C4.11111 6.79774 3.84555 6.85769 3.70496 6.85769C3.60562 6.85769 3.50902 6.84695 3.41491 6.82701C3.61107 7.50572 4.18039 7.99969 4.85502 8.01343C4.32741 8.47168 3.66269 8.74481 2.94038 8.74481C2.81594 8.74481 2.69324 8.7367 2.57263 8.72092C3.25489 9.20565 4.08321 9.47113 4.95382 9.47113C7.78945 9.47113 9.32215 6.88526 9.32215 4.62761C9.32215 4.55354 9.32061 4.47989 9.31765 4.40661C9.61889 4.1657 9.84049 4.04933 10.0726 3.72568C9.7795 3.79122 9.51332 3.74996 9.20151 3.79122Z" fill="white"/>
</svg>
