<svg width="12" height="12" viewBox="0 0 12 12" fill="none" xmlns="http://www.w3.org/2000/svg">
    <path fill-rule="evenodd" clip-rule="evenodd" d="M6 12C9.31371 12 12 9.31371 12 6C12 2.68629 9.31371 0 6 0C2.68629 0 0 2.68629 0 6C0 9.31371 2.68629 12 6 12Z" fill="#D12429"/>
    <path fill-rule="evenodd" clip-rule="evenodd" d="M8.93032 3.53131C9.25365 3.61839 9.50777 3.87258 9.5937 4.19473C9.75 4.77939 9.75 6.00003 9.75 6.00003C9.75 6.00003 9.75 7.22061 9.5937 7.80533C9.50656 8.12868 9.25245 8.38281 8.93032 8.46875C8.34569 8.625 6 8.625 6 8.625C6 8.625 3.65552 8.625 3.06968 8.46875C2.74635 8.38161 2.49223 8.12742 2.40636 7.80533C2.25 7.22061 2.25 6.00003 2.25 6.00003C2.25 6.00003 2.25 4.77939 2.40636 4.19473C2.49344 3.87137 2.74755 3.61719 3.06968 3.53131C3.65552 3.375 6 3.375 6 3.375C6 3.375 8.34569 3.375 8.93032 3.53131ZM7.19909 5.99999L5.25073 7.12516V4.87481L7.19909 5.99999Z" fill="white"/>
</svg>
