<svg width="12" height="13" viewBox="0 0 12 13" fill="none" xmlns="http://www.w3.org/2000/svg">
    <path d="M3.14645 2.64645C3.34171 2.45118 3.65829 2.45118 3.85355 2.64645L5.85355 4.64645C6.04882 4.84171 6.04882 5.15829 5.85355 5.35355C5.65829 5.54882 5.34171 5.54882 5.14645 5.35355L4 4.20711V10C4 10.2761 3.77614 10.5 3.5 10.5C3.22386 10.5 3 10.2761 3 10V4.20711L1.85355 5.35355C1.65829 5.54882 1.34171 5.54882 1.14645 5.35355C0.951184 5.15829 0.951184 4.84171 1.14645 4.64645L3.14645 2.64645ZM8 8.79289V3C8 2.72386 8.22386 2.5 8.5 2.5C8.77614 2.5 9 2.72386 9 3V8.79289L10.1464 7.64645C10.3417 7.45118 10.6583 7.45118 10.8536 7.64645C11.0488 7.84171 11.0488 8.15829 10.8536 8.35355L8.85355 10.3536C8.75979 10.4473 8.63261 10.5 8.5 10.5C8.36739 10.5 8.24021 10.4473 8.14645 10.3536L6.14645 8.35355C5.95118 8.15829 5.95118 7.84171 6.14645 7.64645C6.34171 7.45118 6.65829 7.45118 6.85355 7.64645L8 8.79289Z" fill="#888789"/>
</svg>
