<svg width="18" height="18" viewBox="0 0 18 18" fill="none" xmlns="http://www.w3.org/2000/svg">
    <path fill-rule="evenodd" clip-rule="evenodd" d="M8.318 11.5757C6.898 11.5757 5.74217 10.4198 5.74217 8.99982C5.74217 7.57982 6.898 6.42399 8.318 6.42399C9.738 6.42399 10.8938 7.57982 10.8938 8.99982C10.8938 10.4198 9.738 11.5757 8.318 11.5757ZM9.7955 0.703151C7.29466 0.468151 4.84883 1.35398 3.088 3.12732C1.32633 4.89982 0.458829 7.35232 0.708829 9.85482C1.00716 12.8315 2.883 15.4232 5.6055 16.6173C6.69466 17.0948 7.84966 17.329 8.99633 17.329C10.803 17.329 12.5905 16.7465 14.0663 15.6165C14.4322 15.3365 14.5013 14.8132 14.2213 14.4473C13.9413 14.0832 13.4188 14.014 13.053 14.2932C11.1213 15.7723 8.52466 16.0757 6.27466 15.0906C4.13466 14.1523 2.60216 12.0323 2.36716 9.68815C2.16716 7.68398 2.8605 5.72065 4.2705 4.30148C5.67883 2.88315 7.63883 2.17315 9.64133 2.36315C13.0205 2.67732 15.6663 5.67482 15.6663 9.18732V9.74982C15.6663 10.1398 15.5113 10.5032 15.2288 10.7732C14.9472 11.0432 14.5738 11.1815 14.1847 11.1648C13.4397 11.1323 12.833 10.4315 12.833 9.60315V5.99982C12.833 5.53898 12.4605 5.16648 11.9997 5.16648C11.5755 5.16648 11.2405 5.48565 11.1872 5.89565C10.4305 5.19565 9.42716 4.75732 8.318 4.75732C5.97883 4.75732 4.0755 6.66148 4.0755 8.99982C4.0755 11.339 5.97883 13.2423 8.318 13.2423C9.73466 13.2423 10.9838 12.5373 11.7547 11.4673C12.2922 12.2507 13.1447 12.7873 14.1113 12.8298C14.9555 12.8748 15.7672 12.5648 16.3813 11.9773C16.9955 11.3898 17.333 10.599 17.333 9.74982V9.18732C17.333 4.82315 14.023 1.09732 9.7955 0.703151Z" fill="white"/>
</svg>
