<svg width="12" height="12" viewBox="0 0 12 12" fill="none" xmlns="http://www.w3.org/2000/svg">
    <path fill-rule="evenodd" clip-rule="evenodd" d="M6 12C9.31371 12 12 9.31371 12 6C12 2.68629 9.31371 0 6 0C2.68629 0 0 2.68629 0 6C0 9.31371 2.68629 12 6 12Z" fill="#9043B7"/>
    <path fill-rule="evenodd" clip-rule="evenodd" d="M7.57999 9.00657C7.69615 9.17804 7.92931 9.22288 8.10078 9.10673C9.12398 8.41361 9.75 7.2595 9.75 6C9.75 3.92893 8.07107 2.25 6 2.25C5.79289 2.25 5.625 2.41789 5.625 2.625C5.625 2.83211 5.79289 3 6 3C7.65685 3 9 4.34315 9 6C9 7.00804 8.49949 7.93077 7.68015 8.48578C7.50869 8.60193 7.46384 8.8351 7.57999 9.00657ZM3.78404 2.97449C3.95103 2.85199 4.18571 2.88806 4.30821 3.05506C4.43071 3.22205 4.39464 3.45673 4.22764 3.57923C4.1382 3.64484 4.05242 3.71537 3.97072 3.79044C3.81822 3.93058 3.581 3.92056 3.44086 3.76807C3.30073 3.61557 3.31074 3.37835 3.46324 3.23821C3.56524 3.14448 3.67234 3.05642 3.78404 2.97449ZM2.61992 4.37416C2.70981 4.18758 2.93394 4.1092 3.12052 4.19909C3.3071 4.28898 3.38548 4.51311 3.29558 4.69969C3.10192 5.10166 3 5.5432 3 6C3 6.20711 2.83211 6.375 2.625 6.375C2.41789 6.375 2.25 6.20711 2.25 6C2.25 5.42988 2.37758 4.87714 2.61992 4.37416ZM2.65375 6.58191C2.45485 6.63962 2.34038 6.84764 2.39808 7.04655C2.55563 7.58962 2.83449 8.08828 3.2113 8.50716C3.25034 8.55057 3.2904 8.59306 3.33142 8.63461C3.47693 8.78198 3.71436 8.7835 3.86174 8.63799C4.00911 8.49248 4.01062 8.25504 3.86511 8.10767C3.83225 8.07438 3.80017 8.04034 3.76889 8.00557C3.46726 7.67027 3.24426 7.27149 3.11838 6.83759C3.06068 6.63868 2.85266 6.52421 2.65375 6.58191ZM4.46788 9.42365C4.27888 9.33895 4.19432 9.11708 4.27902 8.92809C4.36371 8.73909 4.58559 8.65453 4.77458 8.73923C5.15648 8.91037 5.57158 9 6 9C6.27998 9 6.55448 8.96175 6.81827 8.88715C7.01756 8.83079 7.22481 8.94666 7.28117 9.14595C7.33752 9.34524 7.22165 9.55249 7.02236 9.60885C6.69232 9.70218 6.34915 9.75 6 9.75C5.46534 9.75 4.94578 9.63781 4.46788 9.42365Z" fill="white"/>
    <path fill-rule="evenodd" clip-rule="evenodd" d="M6 7.5C6.20711 7.5 6.375 7.38807 6.375 7.25V6.375H7.25C7.38807 6.375 7.5 6.20711 7.5 6C7.5 5.79289 7.38807 5.625 7.25 5.625H6.375V4.75C6.375 4.61193 6.20711 4.5 6 4.5C5.79289 4.5 5.625 4.61193 5.625 4.75V5.625H4.75C4.61193 5.625 4.5 5.79289 4.5 6C4.5 6.20711 4.61193 6.375 4.75 6.375H5.625V7.25C5.625 7.38807 5.79289 7.5 6 7.5Z" fill="white"/>
</svg>
