<svg width="14" height="14" viewBox="0 0 14 14" fill="none" xmlns="http://www.w3.org/2000/svg">
    <g clip-path="url(#clip0)">
        <path d="M11.9488 5.37529C11.6672 5.37529 11.4072 5.28483 11.4072 4.6306V4.02131C11.3389 2.0471 9.71108 0.486268 7.73575 0.500942H3.9446C2.06031 0.523613 0.551196 2.06952 0.573867 3.95378C0.574146 3.9763 0.574629 3.99879 0.57534 4.02128V9.97882C0.515375 11.8623 1.99362 13.4378 3.8771 13.4977C3.89959 13.4984 3.92211 13.4989 3.9446 13.4992H9.59722C11.8643 13.4992 13.5736 11.9128 13.5736 9.80982V7.00007C13.5736 5.78526 13.1636 5.37529 11.9488 5.37529ZM4.63729 3.7505H7.34527C7.79394 3.7505 8.15766 4.11423 8.15766 4.56289C8.15766 5.01156 7.79394 5.37529 7.34527 5.37529H4.63729C4.18862 5.37529 3.8249 5.01156 3.8249 4.56289C3.8249 4.11423 4.18862 3.7505 4.63729 3.7505ZM9.51164 10.2496H4.63729C4.18862 10.2496 3.8249 9.88591 3.8249 9.43724C3.8249 8.98857 4.18862 8.62485 4.63729 8.62485H9.51164C9.9603 8.62485 10.324 8.98857 10.324 9.43724C10.324 9.88591 9.9603 10.2496 9.51164 10.2496Z" fill="white"/>
    </g>
    <defs>
        <clipPath id="clip0">
            <rect width="13" height="13" fill="white" transform="translate(0.573608 0.5)"/>
        </clipPath>
    </defs>
</svg>
