<svg width="12" height="13" viewBox="0 0 12 13" fill="none" xmlns="http://www.w3.org/2000/svg">
    <path d="M8.86193 0.695262C9.12228 0.434913 9.54439 0.434913 9.80474 0.695262L11.8047 2.69526C12.0651 2.95561 12.0651 3.37772 11.8047 3.63807L5.80474 9.63807C5.67971 9.7631 5.51014 9.83333 5.33333 9.83333H3.33333C2.96514 9.83333 2.66667 9.53486 2.66667 9.16667V7.16667C2.66667 6.98986 2.7369 6.82029 2.86193 6.69526L8.86193 0.695262ZM4 7.44281V8.5H5.05719L10.3905 3.16667L9.33333 2.10948L4 7.44281ZM0 3.16667C0 2.43029 0.596954 1.83333 1.33333 1.83333H4.66667C5.03486 1.83333 5.33333 2.13181 5.33333 2.5C5.33333 2.86819 5.03486 3.16667 4.66667 3.16667H1.33333V11.1667H9.33333V7.83333C9.33333 7.46514 9.63181 7.16667 10 7.16667C10.3682 7.16667 10.6667 7.46514 10.6667 7.83333V11.1667C10.6667 11.903 10.0697 12.5 9.33333 12.5H1.33333C0.596954 12.5 0 11.903 0 11.1667V3.16667Z" fill="#646464"/>
</svg>
