<svg width="16" height="16" viewBox="0 0 16 16" fill="none" xmlns="http://www.w3.org/2000/svg">
    <path d="M7.52858 1.52864C7.78893 1.26829 8.21104 1.26829 8.47139 1.52864L11.1381 4.1953C11.3984 4.45565 11.3984 4.87776 11.1381 5.13811C10.8777 5.39846 10.4556 5.39846 10.1953 5.13811L8.66666 3.60952V10.6667C8.66666 11.0349 8.36818 11.3334 7.99999 11.3334C7.6318 11.3334 7.33332 11.0349 7.33332 10.6667V3.60952L5.80473 5.13811C5.54438 5.39846 5.12227 5.39846 4.86192 5.13811C4.60157 4.87776 4.60157 4.45565 4.86192 4.1953L7.52858 1.52864ZM3.33332 11.3334C3.70151 11.3334 3.99999 11.6319 3.99999 12V13.3334H12V12C12 11.6319 12.2985 11.3334 12.6667 11.3334C13.0348 11.3334 13.3333 11.6319 13.3333 12V13.3334C13.3333 14.0698 12.7364 14.6667 12 14.6667H3.99999C3.26361 14.6667 2.66666 14.0698 2.66666 13.3334V12C2.66666 11.6319 2.96513 11.3334 3.33332 11.3334Z" fill="#383838"/>
</svg>
