<svg width="7" height="14" viewBox="0 0 7 14" fill="none" xmlns="http://www.w3.org/2000/svg">
    <path fill-rule="evenodd" clip-rule="evenodd" d="M6.57108 2.77834C6.10606 2.7775 5.64096 2.77943 5.17612 2.7775C4.88141 2.75911 4.57862 2.9826 4.5249 3.27491C4.518 3.78262 4.52237 4.2908 4.52271 4.79844C5.20452 4.80151 5.88653 4.79776 6.56817 4.80029C6.5184 5.53494 6.42715 6.26618 6.32033 6.99456C5.71791 7.00015 5.11528 6.99388 4.5132 6.99759C4.50777 9.16426 4.51589 11.3308 4.50882 13.4974C3.61422 13.5012 2.71894 13.4959 1.82451 13.5C1.8076 11.3332 1.82585 9.16514 1.81504 6.99797C1.37864 6.99321 0.941937 7.00099 0.505615 6.99422C0.507256 6.26584 0.50612 5.53746 0.506373 4.80925C0.94261 4.80382 1.37897 4.81043 1.815 4.80622C1.82838 4.09803 1.80179 3.38913 1.82888 2.68153C1.87255 2.12136 2.08619 1.5568 2.50531 1.16979C3.0121 0.687019 3.73332 0.523992 4.41349 0.503672C5.13291 0.497235 5.85191 0.501148 6.57133 0.501484C6.57427 1.26032 6.57444 2.0195 6.57108 2.77834Z" fill="white"/>
</svg>
