<svg width="13" height="14" viewBox="0 0 13 14" fill="none" xmlns="http://www.w3.org/2000/svg">
    <path fill-rule="evenodd" clip-rule="evenodd" d="M4.16631 0.5H8.83369C10.2824 0.5 10.8077 0.650842 11.3374 0.934091C11.867 1.21734 12.2827 1.633 12.5659 2.16263C12.8492 2.69226 13 3.2176 13 4.66631V9.33369C13 10.7824 12.8492 11.3077 12.5659 11.8374C12.2827 12.367 11.867 12.7827 11.3374 13.0659C10.8077 13.3492 10.2824 13.5 8.83369 13.5H4.16631C2.7176 13.5 2.19226 13.3492 1.66263 13.0659C1.133 12.7827 0.71734 12.367 0.434091 11.8374C0.150842 11.3077 0 10.7824 0 9.33369V4.66631C0 3.2176 0.150842 2.69226 0.434091 2.16263C0.71734 1.633 1.133 1.21734 1.66263 0.934091C2.19226 0.650842 2.7176 0.5 4.16631 0.5ZM4.0553 1.89286C2.92857 1.89286 2.58546 1.95912 2.23523 2.14642C1.97705 2.2845 1.78461 2.47694 1.64653 2.73512C1.45923 3.08534 1.39297 3.42846 1.39297 4.55519V9.44481C1.39297 10.5715 1.45923 10.9147 1.64653 11.2649C1.78461 11.5231 1.97705 11.7155 2.23523 11.8536C2.58546 12.0409 2.92857 12.1071 4.0553 12.1071H8.94493C10.0717 12.1071 10.4148 12.0409 10.765 11.8536C11.0232 11.7155 11.2156 11.5231 11.3537 11.2649C11.541 10.9147 11.6073 10.5715 11.6073 9.44481V4.55519C11.6073 3.42846 11.541 3.08534 11.3537 2.73512C11.2156 2.47694 11.0232 2.2845 10.765 2.14642C10.4148 1.95912 10.0717 1.89286 8.94493 1.89286H4.0553ZM3.25 7C3.25 8.79493 4.70507 10.25 6.5 10.25C8.29493 10.25 9.75 8.79493 9.75 7C9.75 5.20507 8.29493 3.75 6.5 3.75C4.70507 3.75 3.25 5.20507 3.25 7ZM6.50011 8.85714C7.52578 8.85714 8.35726 8.02567 8.35726 7C8.35726 5.97433 7.52578 5.14286 6.50011 5.14286C5.47444 5.14286 4.64297 5.97433 4.64297 7C4.64297 8.02567 5.47444 8.85714 6.50011 8.85714ZM10.5625 3.75C10.5625 4.19873 10.1987 4.5625 9.75 4.5625C9.30127 4.5625 8.9375 4.19873 8.9375 3.75C8.9375 3.30127 9.30127 2.9375 9.75 2.9375C10.1987 2.9375 10.5625 3.30127 10.5625 3.75Z" fill="white"/>
</svg>
