<svg width="64" height="64" viewBox="0 0 64 64" fill="none" xmlns="http://www.w3.org/2000/svg">
    <circle cx="32" cy="32" r="31.5" stroke="#C592A5" stroke-opacity="0.8" stroke-dasharray="3 3"/>
    <path d="M32 26.6667C32.3682 26.6667 32.6667 26.9651 32.6667 27.3333V31.3333H36.6667C37.0349 31.3333 37.3334 31.6318 37.3334 32C37.3334 32.3682 37.0349 32.6667 36.6667 32.6667H32.6667V36.6667C32.6667 37.0348 32.3682 37.3333 32 37.3333C31.6318 37.3333 31.3334 37.0348 31.3334 36.6667V32.6667H27.3334C26.9652 32.6667 26.6667 32.3682 26.6667 32C26.6667 31.6318 26.9652 31.3333 27.3334 31.3333H31.3334V27.3333C31.3334 26.9651 31.6318 26.6667 32 26.6667Z" fill="#D0A7B6"/>
</svg>
