<svg width="12" height="14" viewBox="0 0 12 14" fill="none" xmlns="http://www.w3.org/2000/svg">
    <path fill-rule="evenodd" clip-rule="evenodd" d="M8.6513 2.47574C8.18121 1.93667 8.002 1.38979 7.93707 1.00697H8.52923C8.52923 1.00697 8.41236 2.0122 9.27203 2.99919L9.28502 3.01221C9.05127 2.86117 8.8383 2.67887 8.6513 2.47574ZM2.95565 7.50968C2.47776 7.88208 2.22324 8.24407 2.14792 8.89251C2.14532 9.36908 2.26219 10.0436 2.89851 10.4915C2.97383 10.541 3.04655 10.5852 3.11927 10.6243C2.82839 10.2285 2.76605 9.76753 2.76865 9.41596C2.84397 8.76751 3.09849 8.40553 3.57638 8.03312C4.26204 7.53051 5.11652 7.81437 5.11652 7.81437V5.63986C4.91134 5.60861 4.70357 5.59559 4.49579 5.6008V7.29093C4.49579 7.29093 3.64131 7.00707 2.95565 7.50968ZM0.462341 11.6243L0.606246 11.7682C0.588257 11.7525 0.534293 11.7025 0.462341 11.6243ZM11.5056 6.13731V4.00707C11.3628 4.02269 11.142 4.00707 10.8823 3.94717V5.61647C10.8823 5.61647 10.1265 5.58522 9.56553 5.43678C8.78377 5.22844 8.28251 4.90812 8.28251 4.90812C8.28251 4.90812 7.93708 4.67895 7.90851 4.66333V9.06183C7.90851 9.30663 7.84358 9.91862 7.64879 10.429C7.41271 11.0474 7.05596 11.4709 6.94747 11.5996C6.939 11.6097 6.93204 11.618 6.92677 11.6244C6.92677 11.6244 6.44629 12.2181 5.6022 12.6166C4.89724 12.9495 4.27029 12.9673 4.02281 12.9743C4.00314 12.9749 3.98587 12.9754 3.97115 12.976C3.97115 12.976 2.8154 13.0254 1.77392 12.3171L1.76872 12.3119C1.96091 12.5072 2.17129 12.6843 2.39725 12.8405C3.43872 13.5463 4.59448 13.4994 4.59448 13.4994C4.6092 13.4988 4.62647 13.4983 4.64614 13.4978C4.89362 13.4907 5.52057 13.4729 6.22553 13.14C7.06962 12.7416 7.5501 12.1478 7.5501 12.1478C7.55537 12.1414 7.56233 12.1331 7.5708 12.1231C7.67929 11.9943 8.03604 11.5709 8.27212 10.9525C8.46691 10.4421 8.53184 9.83007 8.53184 9.58528V5.18417C8.55781 5.19979 8.90584 5.42897 8.90584 5.42897C8.90584 5.42897 9.4071 5.74928 10.1889 5.95762C10.7499 6.10606 11.5056 6.13731 11.5056 6.13731Z" fill="#EE1D52"/>
    <path d="M10.9086 3.93695V5.60194C10.9086 5.60194 10.1504 5.57077 9.58763 5.42271C8.80336 5.21491 8.30049 4.89542 8.30049 4.89542C8.30049 4.89542 7.95135 4.66684 7.92529 4.65126V9.04102C7.92529 9.28518 7.86016 9.89559 7.66474 10.4047C7.4094 11.0697 7.01335 11.5086 6.9404 11.597C6.9404 11.597 6.45837 12.1892 5.61157 12.5866C4.84815 12.9451 4.17592 12.9373 3.97529 12.9451C3.97529 12.9451 2.81583 12.9918 1.771 12.2879L1.76579 12.2827C1.65636 12.171 1.55214 12.0541 1.45573 11.932C1.12222 11.5086 0.918993 11.0099 0.866882 10.8671V10.8645C0.783505 10.6177 0.611539 10.0203 0.634989 9.44623C0.676677 8.43061 1.02061 7.80461 1.1118 7.64876C1.35151 7.22277 1.66678 6.84094 2.03677 6.52145C2.36507 6.24612 2.73766 6.02533 3.13631 5.87208C3.56883 5.69025 4.03261 5.59415 4.50161 5.58635V7.27213C4.50161 7.27213 3.64439 6.989 2.95653 7.49031C2.47711 7.86176 2.22176 8.22281 2.1462 8.86958C2.1436 9.34492 2.26085 10.0177 2.90181 10.467C2.97737 10.5164 3.05033 10.5606 3.12328 10.5995C3.23532 10.7502 3.37081 10.8826 3.52714 10.9917C4.15508 11.4047 4.67879 11.4333 5.35102 11.1658C5.79917 10.9865 6.13529 10.5839 6.29162 10.1346C6.39063 9.85403 6.38802 9.5735 6.38802 9.28259V1.00697H7.95135C8.01649 1.3888 8.19367 1.93428 8.66787 2.47196C8.85808 2.67456 9.07173 2.85639 9.30363 3.00704C9.37137 3.08237 9.72312 3.44602 10.1765 3.672C10.4084 3.78889 10.6559 3.8772 10.9086 3.93695Z" fill="white"/>
    <path d="M0.233856 10.3674L0.37776 10.5113C0.358573 10.4945 0.301012 10.4443 0.233856 10.3674Z" fill="#69C9D0"/>
    <path d="M3.11721 5.88954C2.71717 6.04279 2.3483 6.26357 2.021 6.53889C1.64953 6.85837 1.33781 7.24278 1.09883 7.66875C1.00791 7.82459 0.665019 8.44796 0.623457 9.46614C0.600078 10.0428 0.774121 10.6376 0.854648 10.8843V10.8869C0.906601 11.0272 1.10922 11.5285 1.44172 11.9518C1.53783 12.0739 1.64174 12.1908 1.75084 12.3025C1.39756 12.0583 1.08584 11.7648 0.818281 11.4298C0.488378 11.0116 0.285761 10.5155 0.233808 10.37V10.3648C0.150683 10.1181 -0.0233605 9.52068 0.00261609 8.94406C0.0441786 7.92849 0.38707 7.30252 0.477988 7.14668C0.716972 6.72071 1.02869 6.33629 1.40016 6.01682C1.72746 5.74149 2.09893 5.52072 2.49637 5.36747C2.74574 5.26357 3.00551 5.18825 3.27047 5.1389C3.67051 5.06877 4.07834 5.06358 4.48098 5.12072V5.60383C4.0108 5.61162 3.54842 5.70773 3.11721 5.88954Z" fill="#69C9D0"/>
    <path fill-rule="evenodd" clip-rule="evenodd" d="M6.36174 1.02201H7.92033C7.86578 0.705132 7.88916 0.499939 7.89176 0.499939H5.7383V8.77519C5.7383 8.78247 5.7383 8.78974 5.7383 8.79701C5.73837 9.08014 5.73843 9.35363 5.64219 9.62713C5.48633 10.0739 5.15123 10.4791 4.70443 10.6583C4.11476 10.8947 3.63939 10.8998 3.10687 10.6167C3.21857 10.7674 3.35365 10.8998 3.50951 11.0063C4.13295 11.4193 4.65767 11.4505 5.32787 11.1804C5.77207 11.0011 6.10717 10.596 6.26563 10.1492C6.36174 9.86869 6.36174 9.58817 6.36174 9.29726V1.02201ZM10.8662 3.95192V3.49218C10.6012 3.52075 10.0635 3.43764 9.51278 3.16491C9.42706 3.12076 9.34653 3.074 9.266 3.02206C9.33614 3.09738 9.68682 3.46361 10.1362 3.68699C10.3674 3.80387 10.6142 3.89218 10.8662 3.95192Z" fill="#69C9D0"/>
</svg>
