<svg width="14" height="12" viewBox="0 0 14 12" fill="none" xmlns="http://www.w3.org/2000/svg">
    <path fill-rule="evenodd" clip-rule="evenodd" d="M12.0637 2.00482C12.6153 1.63835 13.2171 0.901638 13.4166 0.210109C12.9003 0.549523 12.1441 0.88423 11.5354 1.01702C11.048 0.44147 10.3598 0.149994 9.59118 0.149994C8.11547 0.149994 6.91895 1.47582 6.91895 3.11118C6.91895 3.34328 6.94259 3.56931 6.98818 3.78604C4.76732 3.66256 2.7983 2.4836 1.48039 0.691987C1.25038 1.12933 1.11856 1.63806 1.11856 2.18077C1.11856 3.20818 1.59032 4.11455 2.30733 4.64558C1.86931 4.63021 1.45727 4.49698 1.09701 4.2752C1.09675 4.28754 1.09675 4.29989 1.09675 4.31244C1.09675 5.06079 1.34735 5.74443 1.7606 6.26587C2.00475 6.57394 2.30567 6.8254 2.64523 7.00014C2.83282 7.09667 3.2403 7.21611 3.2403 7.21611C3.2403 7.21611 2.78 7.32004 2.53631 7.32004C2.36412 7.32004 2.19669 7.30142 2.03355 7.26685C2.37357 8.44328 3.36039 9.2995 4.52975 9.32332C3.61522 10.1176 2.46305 10.591 1.21104 10.591C0.99535 10.591 0.782656 10.577 0.573608 10.5496C1.75619 11.3898 3.19195 11.85 4.701 11.85C9.61609 11.85 12.2728 7.36781 12.2728 3.45456C12.2728 3.32617 12.2701 3.19851 12.265 3.07149C12.7871 2.65392 13.1712 2.45221 13.5736 1.89121C13.0655 2.00482 12.6041 1.9333 12.0637 2.00482Z" fill="white"/>
</svg>
