<svg width="18" height="18" viewBox="0 0 18 18" fill="none" xmlns="http://www.w3.org/2000/svg">
    <path d="M7.33335 2.33332C5.4924 2.33332 4.00002 3.82571 4.00002 5.66666C4.00002 7.50761 5.4924 8.99999 7.33335 8.99999C9.1743 8.99999 10.6667 7.50761 10.6667 5.66666C10.6667 3.82571 9.1743 2.33332 7.33335 2.33332ZM2.33335 5.66666C2.33335 2.90523 4.57193 0.666656 7.33335 0.666656C10.0948 0.666656 12.3334 2.90523 12.3334 5.66666C12.3334 8.42808 10.0948 10.6667 7.33335 10.6667C4.57193 10.6667 2.33335 8.42808 2.33335 5.66666ZM13.0237 2.13112C13.3492 1.80569 13.8768 1.80569 14.2022 2.13112C16.1548 4.08374 16.1548 7.24957 14.2022 9.20219C13.8768 9.52763 13.3492 9.52763 13.0237 9.20219C12.6983 8.87675 12.6983 8.34912 13.0237 8.02368C14.3255 6.72193 14.3255 4.61138 13.0237 3.30963C12.6983 2.9842 12.6983 2.45656 13.0237 2.13112ZM13.6082 12.9645C13.7199 12.518 14.1723 12.2466 14.6188 12.3582C15.7254 12.6349 16.4259 13.3424 16.8287 14.1481C17.2185 14.9278 17.3334 15.7976 17.3334 16.5C17.3334 16.9602 16.9603 17.3333 16.5 17.3333C16.0398 17.3333 15.6667 16.9602 15.6667 16.5C15.6667 15.9524 15.5732 15.3639 15.338 14.8935C15.1159 14.4492 14.7746 14.1151 14.2146 13.9751C13.7681 13.8635 13.4966 13.411 13.6082 12.9645ZM4.41669 14C3.36714 14 2.33335 15.0113 2.33335 16.5C2.33335 16.9602 1.96026 17.3333 1.50002 17.3333C1.03978 17.3333 0.666687 16.9602 0.666687 16.5C0.666687 14.3068 2.24458 12.3333 4.41669 12.3333H10.25C12.4221 12.3333 14 14.3068 14 16.5C14 16.9602 13.6269 17.3333 13.1667 17.3333C12.7064 17.3333 12.3334 16.9602 12.3334 16.5C12.3334 15.0113 11.2996 14 10.25 14H4.41669Z" fill="white" fill-opacity="0.75"/>
</svg>
