<svg width="17" height="16" viewBox="0 0 17 16" fill="none" xmlns="http://www.w3.org/2000/svg">
    <path fill-rule="evenodd" clip-rule="evenodd" d="M6.24917 10.1697L10.5 13.0847V2.91549L6.24917 5.83049C6.11 5.92465 5.94583 5.97632 5.7775 5.97632H2.16667V10.0238H5.7775C5.94583 10.0238 6.11 10.0755 6.24917 10.1697ZM10.8625 0.645492C11.1175 0.470492 11.4483 0.451326 11.7217 0.596326C11.995 0.740492 12.1667 1.02383 12.1667 1.33299V14.6663C12.1667 14.9763 11.995 15.2597 11.7217 15.4038C11.6 15.468 11.4667 15.4997 11.3333 15.4997C11.1683 15.4997 11.0033 15.4513 10.8625 15.3547L5.51917 11.6905H1.33333C0.873333 11.6905 0.5 11.318 0.5 10.8572V5.14299C0.5 4.68216 0.873333 4.30966 1.33333 4.30966H5.51917L10.8625 0.645492ZM14.1444 4.85083C14.5019 4.56333 15.0277 4.61916 15.3161 4.9775C16.6794 6.6725 16.6794 9.3275 15.3161 11.0225C15.1511 11.2267 14.9094 11.3333 14.6661 11.3333C14.4827 11.3333 14.2986 11.2733 14.1444 11.1492C13.7861 10.8608 13.7286 10.3367 14.0169 9.9775C14.8802 8.90583 14.8802 7.09416 14.0169 6.0225C13.7286 5.66333 13.7861 5.13916 14.1444 4.85083Z" fill="white"/>
</svg>
