<svg width="14" height="10" viewBox="0 0 14 10" fill="none" xmlns="http://www.w3.org/2000/svg">
    <path fill-rule="evenodd" clip-rule="evenodd" d="M12.1528 0.720936C12.7133 0.871878 13.1537 1.31247 13.3027 1.87086C13.5736 2.88427 13.5736 5.00005 13.5736 5.00005C13.5736 5.00005 13.5736 7.11572 13.3027 8.12923C13.1517 8.68972 12.7112 9.13021 12.1528 9.27916C11.1395 9.55 7.07361 9.55 7.07361 9.55C7.07361 9.55 3.00984 9.55 1.9944 9.27916C1.43394 9.12812 0.993477 8.68753 0.844632 8.12923C0.573608 7.11572 0.573608 5.00005 0.573608 5.00005C0.573608 5.00005 0.573608 2.88427 0.844632 1.87086C0.995566 1.31038 1.43603 0.869789 1.9944 0.720936C3.00984 0.449997 7.07361 0.449997 7.07361 0.449997C7.07361 0.449997 11.1395 0.449997 12.1528 0.720936ZM9.15203 4.99999L5.77488 6.95029V3.04968L9.15203 4.99999Z" fill="white"/>
</svg>
